<svg width="15" height="16" viewBox="0 0 15 16" fill="none" xmlns="http://www.w3.org/2000/svg">
<path d="M8.36395 1C8.36395 0.447715 7.91624 0 7.36395 0C6.81167 0 6.36395 0.447715 6.36395 1H7.36395L8.36395 1ZM6.65685 15.7071C7.04737 16.0976 7.68054 16.0976 8.07106 15.7071L14.435 9.34315C14.8255 8.95262 14.8255 8.31946 14.435 7.92893C14.0445 7.53841 13.4113 7.53841 13.0208 7.92893L7.36395 13.5858L1.7071 7.92893C1.31657 7.53841 0.683409 7.53841 0.292885 7.92893C-0.0976396 8.31946 -0.0976396 8.95262 0.292885 9.34315L6.65685 15.7071ZM7.36395 1H6.36395L6.36395 15H7.36395H8.36395V1L7.36395 1Z" fill="#275808"/>
</svg>
